<?xml version="1.0" encoding="UTF-8" standalone="no"?>
<!-- Created with Inkscape (http://www.inkscape.org/) -->

<svg
   width="124.33179mm"
   height="18.909166mm"
   viewBox="0 0 124.33179 18.909166"
   version="1.1"
   id="svg5"
   inkscape:version="1.1.2 (0a00cf5339, 2022-02-04)"
   sodipodi:docname="simplycode.svg"
   xmlns:inkscape="http://www.inkscape.org/namespaces/inkscape"
   xmlns:sodipodi="http://sodipodi.sourceforge.net/DTD/sodipodi-0.dtd"
   xmlns="http://www.w3.org/2000/svg"
   xmlns:svg="http://www.w3.org/2000/svg">
  <sodipodi:namedview
     id="namedview7"
     pagecolor="#ffffff"
     bordercolor="#666666"
     borderopacity="1.0"
     inkscape:pageshadow="2"
     inkscape:pageopacity="0.0"
     inkscape:pagecheckerboard="0"
     inkscape:document-units="mm"
     showgrid="false"
     showguides="true"
     inkscape:guide-bbox="true"
     inkscape:zoom="1.1759259"
     inkscape:cx="228.75591"
     inkscape:cy="-40.393702"
     inkscape:window-width="1846"
     inkscape:window-height="1016"
     inkscape:window-x="0"
     inkscape:window-y="0"
     inkscape:window-maximized="1"
     inkscape:current-layer="layer1">
    <sodipodi:guide
       position="-148.04873,-18.400606"
       orientation="0,-1"
       id="guide70804" />
    <sodipodi:guide
       position="-4.9782943,0.36357475"
       orientation="0,-1"
       id="guide82674" />
    <sodipodi:guide
       position="65.701449,0.36358475"
       orientation="0,-1"
       id="guide82676" />
    <sodipodi:guide
       position="16.509361,3.7502514"
       orientation="0,-1"
       id="guide9050" />
  </sodipodi:namedview>
  <defs
     id="defs2">
    <rect
       x="82.255661"
       y="400.61517"
       width="454.06372"
       height="89.364418"
       id="rect49632" />
    <rect
       x="81.544785"
       y="293.79773"
       width="455.18652"
       height="111.85999"
       id="rect4851" />
  </defs>
  <g
     inkscape:label="Layer 1"
     inkscape:groupmode="layer"
     id="layer1"
     transform="translate(-49.048723,-59.890219)">
    <text
       xml:space="preserve"
       transform="scale(0.26458333)"
       id="text49630"
       style="font-style:normal;font-weight:normal;font-size:40px;line-height:1.25;font-family:sans-serif;white-space:pre;shape-inside:url(#rect49632);fill:#000000;fill-opacity:1;stroke:none" />
    <polygon
       class="st2"
       points=""
       id="polygon82612"
       transform="matrix(0.26458333,0,0,0.26458333,46.111848,58.003136)" />
    <text
       xml:space="preserve"
       style="font-style:normal;font-weight:normal;font-size:10.5833px;line-height:1.25;font-family:sans-serif;letter-spacing:0px;fill:#000000;fill-opacity:1;stroke:none;stroke-width:0.264583"
       x="109.47266"
       y="48.617371"
       id="text1328"><tspan
         sodipodi:role="line"
         id="tspan1326"
         style="font-style:normal;font-variant:normal;font-weight:normal;font-stretch:normal;font-size:19.4028px;font-family:Cocon-Regular;-inkscape-font-specification:'Cocon-Regular, Normal';font-variant-ligatures:normal;font-variant-caps:normal;font-variant-numeric:normal;font-variant-east-asian:normal;stroke-width:0.264583"
         x="109.47266"
         y="48.617371" /></text>
    <path
       class="st0"
       d="m 55.636216,69.069551 c -2.143125,-0.343958 -2.831042,-0.502708 -2.831042,-1.27 0,-0.529166 0.396875,-1.190625 2.2225,-1.190625 1.190625,0 2.301875,0.238125 3.122084,0.687917 V 66.71476 c 0,-1.42875 -1.322917,-2.275417 -3.571875,-2.275417 -2.248959,0 -4.656667,1.137708 -4.656667,3.624792 0,1.534583 0.846667,2.328333 2.725208,2.592916 2.196042,0.3175 2.831042,0.529167 2.831042,1.349375 0,1.190625 -1.561042,1.190625 -2.169583,1.190625 -1.455209,0 -2.460625,-0.343958 -3.122084,-0.740833 v 0.529166 c 0,0.582084 0,2.354792 3.730625,2.354792 2.778125,0 4.497917,-1.349375 4.497917,-3.4925 0,-1.905 -1.508125,-2.566458 -2.778125,-2.778125 z"
       id="path82600"
       style="fill:#c9c9cc;fill-opacity:1;stroke-width:0.264583" />
    <path
       class="st0"
       d="m 89.211835,64.465801 c -3.677703,0 -5.714994,2.090209 -5.714994,5.87375 v 5.794375 c 0,1.613958 0.582083,2.301875 1.957916,2.301875 h 1.031878 v -5.027083 c 0,0 0.0265,0.396875 0.635,1.11125 0.71437,0.740833 1.34937,0.873125 2.51354,0.873125 2.88396,0 4.84187,-2.275417 4.84187,-5.688542 0,-3.095625 -2.16958,-5.23875 -5.26521,-5.23875 z m 0.21167,8.307917 c -1.29646,0 -2.51354,-0.820209 -2.51354,-3.148542 0,-1.613958 1.05833,-2.619375 2.11667,-2.619375 1.56104,0 2.51354,0.714375 2.51354,3.069167 -0.0265,1.640416 -0.92604,2.69875 -2.11667,2.69875 z"
       id="path82602"
       style="fill:#c9c9cc;fill-opacity:1;stroke-width:0.264583" />
    <path
       class="st0"
       d="m 98.736845,71.212676 v -7.9375 c 0,-1.613958 -0.60855,-2.275416 -2.11667,-2.275416 h -0.97896 v 10.768541 c 0,2.54 1.74625,3.439583 3.41312,3.439583 0.635,0 2.116665,-0.132291 2.116665,-1.402291 v -0.978959 h -0.47625 c -0.846665,0.02646 -1.957905,-0.15875 -1.957905,-1.613958 z"
       id="path82604"
       style="fill:#c9c9cc;fill-opacity:1;stroke-width:0.264583" />
    <path
       class="st0"
       d="m 109.61121,64.783301 h -1.50812 c -0.29104,2.090209 -1.08479,4.894792 -1.905,6.535208 l -0.3175,0.661459 -0.29104,-0.687917 c -0.58209,-1.375833 -1.34938,-3.518958 -1.74625,-5.23875 -0.18521,-0.846666 -1.05834,-1.296458 -1.79917,-1.296458 h -1.56104 c 0.52916,2.831042 2.35479,7.408333 3.91583,9.736666 l 0.10583,0.15875 -0.10583,0.211667 c -0.47625,1.058333 -1.05833,1.481667 -2.14312,1.5875 l -1.32292,0.105833 v 0.608542 c 0,1.137708 1.00542,1.561042 1.87854,1.561042 2.14313,0 2.80458,-0.502709 5.82083,-6.323542 1.21709,-2.354791 2.2225,-5.476875 2.2225,-6.50875 0.0265,-0.502708 -0.10583,-1.11125 -1.24354,-1.11125 z"
       id="path82606"
       style="fill:#c9c9cc;fill-opacity:1;stroke-width:0.264583" />
    <path
       class="st1"
       d="m 61.007257,63.486843 c 0.899584,0 1.640417,-0.687917 1.640417,-1.534583 0,-0.846667 -0.740833,-1.534584 -1.640417,-1.534584 -0.899583,0 -1.640416,0.687917 -1.640416,1.534584 0,0.846666 0.740833,1.534583 1.640416,1.534583 z"
       id="path82608"
       style="fill:#ffcc00;fill-opacity:1;stroke:#ae47ff;stroke-width:0;stroke-miterlimit:10;stroke-opacity:1;stroke-dasharray:none" />
    <path
       class="st0"
       d="m 70.585174,67.111635 c 1.217083,0 1.852083,0.740833 1.852083,2.169583 v 3.915833 c 0,1.402292 0.502709,1.878542 2.010834,1.878542 h 0.978958 v -5.741458 c 0,-1.825625 0.9525,-2.2225 1.772708,-2.2225 1.322917,0 1.931459,0.714375 1.931459,2.275416 v 3.81 c 0,1.217083 0.343958,1.878542 2.116666,1.878542 h 0.978959 v -5.635625 c 0,-3.201458 -1.693334,-4.974167 -4.736042,-4.974167 -1.481667,0 -2.69875,1.084792 -3.148542,1.799167 l -0.370416,0.582083 -0.264584,-0.635 c -0.291041,-0.714375 -1.42875,-1.74625 -3.042708,-1.74625 -1.084792,0 -2.037292,0.211667 -2.804583,0.635 -1.42875,0.767292 -2.169584,2.248959 -2.169584,4.233334 v 1.613958 c 0,1.005416 -0.47625,1.508125 -1.481666,1.613958 h -0.02646 -0.02646 c -1.005417,-0.07938 -1.481667,-0.582083 -1.481667,-1.613958 v -3.545417 c 0,-1.772708 -0.529166,-2.275416 -2.513541,-2.275416 h -0.582083 v 6.376458 c 0,0.9525 0.238125,1.693333 0.687916,2.196041 0.661458,0.714375 2.06375,1.508125 3.889375,1.508125 h 0.07937 c 0.502708,0 0.9525,-0.07937 1.322917,-0.15875 l 0.07937,-0.02646 c 0.899583,-0.211667 1.42875,-0.529167 1.719791,-0.767292 l 0.07937,-0.05292 c 0.370417,-0.264584 1.349375,-1.27 1.375834,-2.645834 v -2.196041 c 0,-0.846667 0.211666,-2.248958 1.772708,-2.248958 z"
       id="path82610"
       style="fill:#c9c9cc;fill-opacity:1;stroke-width:0.264583" />
    <path
       d="m 119.58266,71.574431 q 0,1.667428 -1.12741,2.605357 -1.12741,0.928454 -3.24011,0.928454 -0.72003,0 -1.33584,-0.180007 -0.60634,-0.170532 -1.06109,-0.454753 -0.45475,-0.28422 -0.71055,-0.653707 -0.24633,-0.369487 -0.24633,-0.77687 v -1.174779 h 0.0947 q 0.20843,0.18948 0.5495,0.378961 0.34106,0.180006 0.76739,0.322117 0.42633,0.132636 0.89056,0.208428 0.4737,0.07579 0.93793,0.07579 1.8948,0 1.8948,-1.146356 0,-0.227377 -0.0853,-0.388435 -0.0853,-0.170533 -0.32212,-0.303169 -0.22738,-0.142111 -0.65371,-0.246325 -0.42633,-0.104214 -1.10846,-0.208428 -1.66743,-0.227377 -2.47272,-0.900032 -0.80529,-0.672656 -0.80529,-1.875857 0,-0.7295 0.31264,-1.392682 0.32212,-0.663181 0.90003,-1.15583 0.58739,-0.49265 1.40216,-0.77687 0.81477,-0.293695 1.82849,-0.293695 0.89055,0 1.51584,0.208429 0.63476,0.198954 1.04214,0.530545 0.40739,0.322117 0.58739,0.720026 0.18948,0.397909 0.18948,0.767395 v 0.985299 h -0.0947 q -0.40738,-0.407383 -1.23162,-0.68213 -0.82424,-0.28422 -1.76217,-0.28422 -1.19373,0 -1.64848,0.33159 -0.44528,0.331591 -0.44528,0.833714 0,0.189481 0.0758,0.341065 0.0853,0.142111 0.30317,0.265273 0.22738,0.113688 0.63476,0.208428 0.40739,0.09474 1.08004,0.208429 1.65795,0.274747 2.50114,0.994772 0.84319,0.720026 0.84319,1.980071 z"
       id="path9232"
       style="font-size:19.4028px;line-height:1.25;font-family:Cocon-Regular;-inkscape-font-specification:'Cocon-Regular, Normal';fill:#ffcc00;stroke-width:0.264583" />
    <path
       d="m 120.63703,64.819453 q 0,-0.388435 0.0379,-0.663182 0.0474,-0.284221 0.13264,-0.511597 0.0853,-0.236851 0.22738,-0.435805 0.15158,-0.208429 0.36001,-0.464227 0.27475,-0.312643 0.58739,-0.511598 0.32212,-0.208428 0.63476,-0.208428 h 0.60634 v 2.368506 h 3.62855 v 1.070564 q 0,0.407383 -0.37896,0.82424 -0.37896,0.416857 -1.17478,0.416857 h -2.07481 v 4.092778 q 0,1.023195 0.42633,1.459 0.42633,0.426331 1.22215,0.426331 1.27899,0 1.87585,-0.369487 h 0.10422 v 0.928454 q 0,0.814766 -0.57792,1.278993 -0.56844,0.464228 -1.7148,0.464228 -1.99902,0 -2.96537,-1.013721 -0.95687,-1.023194 -0.95687,-2.861155 z"
       id="path9234"
       style="font-size:19.4028px;line-height:1.25;font-family:Cocon-Regular;-inkscape-font-specification:'Cocon-Regular, Normal';fill:#ffcc00;stroke-width:0.264583" />
    <path
       d="m 134.80207,69.831211 q 0,-1.572688 -0.60634,-2.453772 -0.59686,-0.890558 -1.87586,-0.890558 -1.12741,0 -1.68637,0.833714 -0.55897,0.833714 -0.55897,2.141129 0,1.563214 0.58739,2.444298 0.59686,0.87161 1.8948,0.87161 1.14636,0 1.69585,-0.833714 0.5495,-0.833714 0.5495,-2.112707 z m -7.42764,0 q 0,-1.184253 0.33159,-2.207447 0.3316,-1.032669 0.9853,-1.800065 0.66318,-0.767396 1.62953,-1.212675 0.97583,-0.445279 2.23587,-0.445279 1.18426,0 2.10324,0.435805 0.91898,0.435805 1.54426,1.174779 0.63476,0.7295 0.96635,1.686376 0.33159,0.947402 0.33159,1.999019 0,1.184253 -0.34106,2.216921 -0.34107,1.023195 -0.99477,1.790591 -0.64424,0.757922 -1.62006,1.203201 -0.96635,0.435805 -2.2264,0.435805 -1.18425,0 -2.10323,-0.435805 -0.91898,-0.445279 -1.55374,-1.165305 -0.62528,-0.7295 -0.95688,-1.676902 -0.33159,-0.956877 -0.33159,-1.999019 z"
       id="path9236"
       style="font-size:19.4028px;line-height:1.25;font-family:Cocon-Regular;-inkscape-font-specification:'Cocon-Regular, Normal';fill:#ffcc00;stroke-width:0.264583" />
    <path
       d="m 144.42095,66.93216 q -0.29369,-0.113688 -0.65371,-0.208429 -0.36001,-0.09474 -0.86213,-0.09474 -0.87161,0 -1.33584,0.511597 -0.46423,0.511598 -0.46423,1.714799 v 6.016004 h -0.72002 q -0.87161,0 -1.39268,-0.426331 -0.5116,-0.426331 -0.5116,-1.241097 v -4.812804 q 0,-0.77687 0.20843,-1.525317 0.2179,-0.748448 0.68213,-1.307416 0.46423,-0.558967 1.2032,-0.909506 0.73897,-0.350539 1.77164,-0.350539 0.59686,0 1.01372,0.161059 0.41686,0.151584 0.66318,0.397909 0.2558,0.23685 0.36949,0.549493 0.12316,0.303169 0.12316,0.596864 v 0.928454 z"
       id="path9238"
       style="font-size:19.4028px;line-height:1.25;font-family:Cocon-Regular;-inkscape-font-specification:'Cocon-Regular, Normal';fill:#ffcc00;stroke-width:0.264583" />
    <path
       d="m 151.2829,67.907984 q 0,-0.795818 -0.54002,-1.184253 -0.53055,-0.388435 -1.44006,-0.388435 -0.46422,0 -0.86213,0.189481 -0.39791,0.180006 -0.69161,0.483175 -0.29369,0.293695 -0.45475,0.701078 -0.16106,0.407383 -0.18,0.852662 l -0.0189,0.350539 h 1.15583 q 0.93793,0 1.51584,-0.05684 0.58739,-0.05684 0.91898,-0.170533 0.34107,-0.123162 0.46423,-0.312643 0.13264,-0.198954 0.13264,-0.464227 z m 2.44429,0.312643 q 0,1.430577 -1.1653,1.989545 -1.16531,0.549493 -3.74224,0.549493 h -1.70532 q 0.15158,0.985299 0.95687,1.572688 0.80529,0.577915 1.9706,0.577915 0.81476,0 1.69585,-0.198954 0.88108,-0.208429 1.50637,-0.786344 h 0.0947 v 0.814766 q 0,0.502123 -0.18948,0.928454 -0.18001,0.426331 -0.62529,0.748448 -0.44528,0.322117 -1.17478,0.502123 -0.7295,0.189481 -1.79059,0.189481 -0.97582,0 -1.90428,-0.369487 -0.92845,-0.369487 -1.64848,-1.061091 -0.72002,-0.691603 -1.15583,-1.657954 -0.4358,-0.96635 -0.4358,-2.169551 0,-1.307415 0.37896,-2.359032 0.37896,-1.06109 1.05162,-1.800064 0.68213,-0.738974 1.62005,-1.127409 0.94741,-0.397909 2.07482,-0.397909 0.81476,0 1.56321,0.284221 0.75792,0.274746 1.33584,0.795818 0.58739,0.521071 0.93792,1.278993 0.35054,0.757922 0.35054,1.69585 z"
       id="path9240"
       style="font-size:19.4028px;line-height:1.25;font-family:Cocon-Regular;-inkscape-font-specification:'Cocon-Regular, Normal';fill:#ffcc00;stroke-width:0.264583" />
  </g>
  <style
     type="text/css"
     id="style82598">
	.st0{fill:#939598;}
	.st1{fill:#F26522;stroke:#F26522;stroke-width:1.2;stroke-miterlimit:10;}
	.st2{fill:#58595B;}
</style>
</svg>
